<svg xmlns="http://www.w3.org/2000/svg" width="25" height="32"><defs/><g fill="#222" fill-rule="nonzero"><path d="M6.674 11.962c.122.018.278.027.452.027.783 0 1.452-.192 1.904-.619.348-.331.54-.82.54-1.395 0-.575-.253-1.062-.627-1.36-.39-.313-.974-.47-1.79-.47-.81 0-1.383.052-1.79.122v5.796h1.312v-2.1zm0-2.762a2.24 2.24 0 01.548-.053c.66 0 1.034.323 1.034.863 0 .602-.434.96-1.139.96-.19 0-.33-.01-.443-.036V9.2zM14.535 13.365c.565-.479.974-1.254.974-2.38 0-1.036-.383-1.76-.991-2.213-.565-.427-1.286-.628-2.4-.628-.669 0-1.304.044-1.79.123v5.77c.33.043.817.087 1.504.087 1.146 0 2.086-.244 2.703-.759zm-2.877-4.148c.112-.026.304-.053.6-.053 1.138 0 1.85.645 1.842 1.866 0 1.403-.783 2.065-1.982 2.057-.165 0-.348 0-.46-.027V9.217zM17.624 11.701h2.104V10.62h-2.104V9.278h2.251v-1.09h-3.58v5.875h1.33zM3.91 20.16h17.184v1H3.91zM3.91 22.554h17.184v1H3.91zM3.91 24.949h17.184v1H3.91z"/><path d="M3.953 31.67h17.161a3.598 3.598 0 003.594-3.603V4.024A3.598 3.598 0 0021.115.42H3.953A3.598 3.598 0 00.36 4.024v24.042a3.598 3.598 0 003.593 3.603zM1.333 4.023a2.626 2.626 0 012.62-2.627h17.161a2.626 2.626 0 012.62 2.627v24.042a2.626 2.626 0 01-2.62 2.627H3.954a2.626 2.626 0 01-2.62-2.626V4.024z"/></g></svg>